<?xml version="1.0" encoding="utf-8"?>
<!-- Generator: Adobe Illustrator 23.0.1, SVG Export Plug-In . SVG Version: 6.00 Build 0)  -->
<svg version="1.1" id="Capa_1" xmlns="http://www.w3.org/2000/svg" xmlns:xlink="http://www.w3.org/1999/xlink" x="0px" y="0px"
	 viewBox="0 0 512 512" style="enable-background:new 0 0 512 512;" xml:space="preserve">
<style type="text/css">
	.st0{fill:#BBFFDE;}
	.st1{fill:#41B883;}
	.st2{fill:none;stroke:#7E4CE8;stroke-width:24;stroke-miterlimit:10;}
	.st3{fill:#FFFFFF;}
</style>
<g>
	<g>
		<path class="st0" d="M214.6,169.8h237.7c10.6,0,19.2,8.6,19.2,19.2v208.6l6.8-0.8v96.6l-87.7-58.9h-176
			c-10.6,0-19.2-8.6-19.2-19.2V189C195.4,178.4,204,169.8,214.6,169.8z"/>
		<g>
			<path class="st1" d="M468.4,502.8l-62.1-51.7h-198c-16.4,0-29.8-13.3-29.8-29.8V182.9c0-16.4,13.3-29.8,29.8-29.8h250.5
				c16.4,0,29.8,13.3,29.8,29.8v310.5c0,4.7-2.8,9.1-7,11.1c-1.6,0.8-3.4,1.1-5.2,1.1C473.5,505.7,470.7,504.7,468.4,502.8z
				 M208.3,173.5c-5.2,0-9.5,4.3-9.5,9.5v238.4c0,5.2,4.3,9.5,9.5,9.5h205.4l54.6,45.4V182.9c0-5.2-4.3-9.5-9.5-9.5H208.3V173.5z"/>
		</g>
		<path class="st2" d="M446.4,441"/>
	</g>
	<g>
		<path class="st3" d="M297.4,22.9H59.6c-10.6,0-19.2,8.6-19.2,19.2v208.6l-6.8-0.8v96.6l87.7-58.9h176c10.6,0,19.2-8.6,19.2-19.2
			V42.2C316.6,31.5,308,22.9,297.4,22.9z"/>
		<g>
			<path class="st1" d="M35.7,358.8c-1.8,0-3.5-0.4-5.2-1.1c-4.3-2-7-6.4-7-11.1V36.1c0-16.4,13.3-29.8,29.8-29.8h250.5
				c16.4,0,29.8,13.3,29.8,29.8v238.4c0,16.4-13.3,29.8-29.8,29.8h-198L43.6,356C41.3,357.8,38.5,358.8,35.7,358.8z M53.3,26.6
				c-5.2,0-9.5,4.3-9.5,9.5v293.4l54.6-45.4h205.4c5.2,0,9.5-4.3,9.5-9.5V36.1c0-5.2-4.3-9.5-9.5-9.5H53.3z"/>
		</g>
		<path class="st2" d="M65.6,294.1"/>
	</g>
	<g>
		<path class="st1" d="M197.6,118.3L197.6,118.3c0,12.8-11.9,20.9-42.7,22.2l-1.3,1.3l5.7,39.5h25.4l2.7-14.9
			c26-4.6,47-17.4,47-48.6l0,0c0-32.3-23.9-51-59-51c-22.8-0.5-44.7,9.1-59.7,26.4l22.4,24.6c9.3-10.5,22.6-16.5,36.5-16.9
			C189.4,101,197.6,107.4,197.6,118.3z"/>
		<rect x="151.2" y="200.6" class="st1" width="39.5" height="39"/>
	</g>
</g>
</svg>
