<?xml version="1.0" encoding="utf-8"?>
<!-- Generator: Adobe Illustrator 23.0.1, SVG Export Plug-In . SVG Version: 6.00 Build 0)  -->
<svg version="1.1" id="Capa_1" xmlns="http://www.w3.org/2000/svg" xmlns:xlink="http://www.w3.org/1999/xlink" x="0px" y="0px"
	 viewBox="0 0 512 512" style="enable-background:new 0 0 512 512;" xml:space="preserve">
<style type="text/css">
	.st0{fill:#FFFFFF;}
	.st1{fill:#CAFFE6;}
	.st2{fill:#41B883;}
</style>
<path class="st0" d="M37.8,272.8C-11.5,192.6,13.4,87.6,93.6,38.3s185.1-24.4,234.5,55.8c17,27.6,25.7,59.4,25.3,91.8
	c-3,94.2-80.8,168.8-175.1,167.9H21l16.6-28.1C47.5,309.4,47.5,289.1,37.8,272.8z"/>
<path class="st1" d="M474.2,418.8c49.3-80.2,24.3-185.2-55.9-234.5c-20.3-12.5-43-20.6-66.6-23.7c1.2,8.4,1.8,16.8,1.7,25.2
	c-3,94.2-80.8,168.8-175.1,167.9h-17.8c13.9,84.7,87.3,146.6,173.1,146.1H491l-16.6-28.1C464.6,455.5,464.5,435.1,474.2,418.8z"/>
<g>
	<path class="st2" d="M484.9,465.5c-7.5-12.4-7.5-27.8,0-40.2c52.8-85.9,26-198.4-59.9-251.2c-19-11.7-40-19.8-61.9-23.9
		c-7.1-38.3-26.2-73.3-54.5-100C271.1,14.3,220-3.7,168.3,0.6C67.8,8.5-7.3,96.4,0.6,197c2.3,29.1,11.5,57.3,26.9,82.1
		c7.5,12.4,7.5,27.8,0,40.2l-16.9,28.2c-3.4,5.8-1.5,13.3,4.3,16.7c1.9,1.1,4,1.7,6.2,1.7h129.5c19.1,85.5,95,146.2,182.6,146.1H491
		c6.7,0,12.2-5.5,12.2-12.2c0-2.2-0.6-4.3-1.7-6.2L484.9,465.5z M42.3,341.5l5.8-9.9c12.2-20.1,12.2-45.3,0-65.4
		C2.4,191.9,25.6,94.4,100,48.6S271.9,26,317.7,100.4c15.8,25.6,23.9,55.1,23.5,85.2c-2.9,87.6-75.2,156.9-162.9,156h-136V341.5z
		 M333.7,487.6c-74.4,0.4-139.6-49.7-158.3-121.7h2.9c100.9,0.8,184.1-79,187.2-179.9c0-3.5,0-7.1,0-10.6
		c85.1,20,137.9,105.2,117.9,190.3c-3.9,16.5-10.4,32.3-19.3,46.8c-12.1,20.1-12.1,45.3,0,65.4l5.8,9.9L333.7,487.6L333.7,487.6z"/>
	<path class="st2" d="M196.5,153.9L196.5,153.9c0,12.2-11.4,20-40.8,21.2l-1.2,1.2l5.4,37.7h24.3l2.6-14.2
		c24.8-4.4,44.9-16.6,44.9-46.4l0,0c0-30.9-22.8-48.7-56.4-48.7c-21.8-0.5-42.7,8.7-57,25.2l21.4,23.5c8.9-10,21.6-15.8,34.9-16.1
		C188.6,137.4,196.5,143.5,196.5,153.9z"/>
	<rect x="152.2" y="232.5" class="st2" width="37.7" height="37.3"/>
</g>
</svg>
