<?xml version="1.0" encoding="utf-8"?>
<!-- Generator: Adobe Illustrator 23.0.1, SVG Export Plug-In . SVG Version: 6.00 Build 0)  -->
<svg version="1.1" id="Layer_1" xmlns="http://www.w3.org/2000/svg" xmlns:xlink="http://www.w3.org/1999/xlink" x="0px" y="0px"
	 viewBox="0 0 195.1 163.6" style="enable-background:new 0 0 195.1 163.6;" xml:space="preserve">
<style type="text/css">
	.st0{fill:url(#SVGID_1_);}
	.st1{fill:none;}
	.st2{fill:url(#SVGID_2_);}
	.st3{fill:url(#SVGID_3_);}
	.st4{fill:url(#SVGID_4_);}
	.st5{fill:url(#SVGID_5_);}
	.st6{fill:url(#SVGID_6_);}
	.st7{fill:url(#SVGID_7_);}
	.st8{fill:url(#SVGID_8_);}
	.st9{fill:url(#SVGID_9_);}
	.st10{fill:url(#SVGID_10_);}
	.st11{fill:url(#SVGID_11_);}
	.st12{fill:url(#SVGID_12_);}
	.st13{opacity:0.45;fill:url(#SVGID_13_);enable-background:new    ;}
	.st14{opacity:0.45;fill:url(#SVGID_14_);enable-background:new    ;}
	.st15{opacity:0.1;fill:#8BBCFF;enable-background:new    ;}
	.st16{opacity:0.25;fill:#8BBCFF;enable-background:new    ;}
	.st17{fill:none;stroke:url(#SVGID_15_);stroke-linecap:round;stroke-linejoin:round;stroke-miterlimit:10;}
	.st18{fill:none;stroke:url(#SVGID_16_);stroke-linecap:round;stroke-linejoin:round;stroke-miterlimit:10;}
	.st19{fill:url(#SVGID_17_);}
	.st20{fill:url(#SVGID_18_);}
	.st21{fill:url(#SVGID_19_);}
	.st22{fill:url(#SVGID_20_);}
	.st23{fill:url(#SVGID_21_);}
	.st24{opacity:0.25;fill:#FFFFFF;enable-background:new    ;}
	.st25{fill:url(#SVGID_22_);}
	.st26{fill:url(#SVGID_23_);}
	.st27{fill:url(#SVGID_24_);}
	.st28{fill:url(#SVGID_25_);}
	.st29{fill:url(#SVGID_26_);}
	.st30{fill:url(#SVGID_27_);}
	.st31{fill:url(#SVGID_28_);}
	.st32{fill:url(#SVGID_29_);}
	.st33{fill:url(#SVGID_30_);}
	.st34{fill:#41B883;}
	.st35{fill:#B9FCDB;}
	.st36{fill:url(#SVGID_31_);}
	.st37{fill:url(#SVGID_32_);}
	.st38{fill:none;stroke:url(#SVGID_33_);stroke-linecap:round;stroke-linejoin:round;stroke-miterlimit:10;}
	.st39{fill:none;stroke:url(#SVGID_34_);stroke-linecap:round;stroke-linejoin:round;stroke-miterlimit:10;}
	
		.st40{opacity:0.25;fill:none;stroke:#41B883;stroke-linecap:round;stroke-linejoin:round;stroke-miterlimit:10;enable-background:new    ;}
</style>
<linearGradient id="SVGID_1_" gradientUnits="userSpaceOnUse" x1="0" y1="94.65" x2="195" y2="94.65" gradientTransform="matrix(1 0 0 -1 0 166)">
	<stop  offset="0" style="stop-color:#FFFFFF"/>
	<stop  offset="1" style="stop-color:#D8E0FF"/>
</linearGradient>
<path class="st0" d="M0,0v42.6v1.8v98.3c17.6-10.7,35.8-21,56.6-25c8.8-1.7,18.1-2.3,27.9-1.2c5.2,0.5,10.5,1.5,16,3
	c35.9,9.8,58.5,28.5,94.5,11.7V44.5v-1.8V0H0z"/>
<g>
	<path class="st1" d="M195.1,15.9v116.3c-36.1,16.8-58.7-1.9-94.6-11.7c-5.5-1.5-10.8-2.5-16-3c-9.8-1.1-19.1-0.5-27.9,1.2
		c-20.8,4-39.1,14.4-56.7,25.1V15.9c0-4.6,1.9-8.8,5-11.7C7.8,1.4,11.7-0.2,16-0.2h163C187.9-0.2,195.1,7.1,195.1,15.9z"/>
	
		<linearGradient id="SVGID_2_" gradientUnits="userSpaceOnUse" x1="42.4895" y1="190.4114" x2="90.9649" y2="473.4216" gradientTransform="matrix(1 0 0 1 0 -334)">
		<stop  offset="0" style="stop-color:#FFFFFF"/>
		<stop  offset="1" style="stop-color:#D8E0FF"/>
	</linearGradient>
	<path class="st2" d="M109.2-0.2c0,23-18.7,41.7-41.7,41.7S25.8,22.8,25.8-0.2H16c-4.2,0-8.1,1.7-11,4.5
		c2.3,32.5,29.4,58.3,62.5,58.3c34.6,0,62.7-28.1,62.7-62.7L109.2-0.2L109.2-0.2z"/>
	<g>
		
			<linearGradient id="SVGID_3_" gradientUnits="userSpaceOnUse" x1="57.7785" y1="384.534" x2="73.1053" y2="480.7716" gradientTransform="matrix(1 0 0 1 0 -334)">
			<stop  offset="0" style="stop-color:#FF7570"/>
			<stop  offset="1" style="stop-color:#FFBBBB"/>
		</linearGradient>
		<path class="st3" d="M84.6,117.4c-9.8-1.1-19.1-0.5-27.9,1.2c-2.1-5.9-4.9-13.8-6.6-17.3c-0.2-0.5-0.4-0.9-0.6-1.2l2-3.6l5.3-9.6
			l3.8,2.6l1.5,1.1l5.4,3.8c0,0,0.4,0.5,1,1.3c1.6,2.1,4.8,6.4,8,10.8C79.8,110.9,83,115.3,84.6,117.4z"/>
		<g>
			
				<linearGradient id="SVGID_4_" gradientUnits="userSpaceOnUse" x1="87.4958" y1="437.8604" x2="161.9906" y2="248.5935" gradientTransform="matrix(1 0 0 1 0 -334)">
				<stop  offset="0" style="stop-color:#FFFFFF"/>
				<stop  offset="1" style="stop-color:#DDC4FF"/>
			</linearGradient>
			<path class="st4" d="M147.2,44.3v58.1c0,2.3-1.9,4.2-4.2,4.2H55.7c-2.3,0-4.2-1.9-4.2-4.2V44.3H147.2z"/>
			
				<linearGradient id="SVGID_5_" gradientUnits="userSpaceOnUse" x1="92.6048" y1="400.6583" x2="101.1593" y2="367.1532" gradientTransform="matrix(1 0 0 1 0 -334)">
				<stop  offset="0" style="stop-color:#FF227D"/>
				<stop  offset="1" style="stop-color:#FF967D"/>
			</linearGradient>
			<path class="st5" d="M147.2,36.7v7.6H51.5v-7.6c0-2.3,1.9-4.2,4.2-4.2H143C145.3,32.5,147.2,34.3,147.2,36.7z"/>
			<g>
				
					<linearGradient id="SVGID_6_" gradientUnits="userSpaceOnUse" x1="67.3298" y1="343.2129" x2="67.5675" y2="375.5296" gradientTransform="matrix(1 0 0 1 0 -334)">
					<stop  offset="0" style="stop-color:#2A1F31"/>
					<stop  offset="1" style="stop-color:#6A517F"/>
				</linearGradient>
				<path class="st6" d="M67.5,27.6L67.5,27.6c-1,0-1.8,0.8-1.8,1.8v5.9c0,1,0.8,1.8,1.8,1.8l0,0c1,0,1.8-0.8,1.8-1.8v-5.9
					C69.3,28.4,68.5,27.6,67.5,27.6z"/>
				
					<linearGradient id="SVGID_7_" gradientUnits="userSpaceOnUse" x1="78.0293" y1="343.1341" x2="78.2669" y2="375.4508" gradientTransform="matrix(1 0 0 1 0 -334)">
					<stop  offset="0" style="stop-color:#2A1F31"/>
					<stop  offset="1" style="stop-color:#6A517F"/>
				</linearGradient>
				<path class="st7" d="M78.2,27.6L78.2,27.6c-1,0-1.8,0.8-1.8,1.8v5.9c0,1,0.8,1.8,1.8,1.8l0,0c1,0,1.8-0.8,1.8-1.8v-5.9
					C79.9,28.4,79.1,27.6,78.2,27.6z"/>
				
					<linearGradient id="SVGID_8_" gradientUnits="userSpaceOnUse" x1="88.6287" y1="343.0563" x2="88.8663" y2="375.373" gradientTransform="matrix(1 0 0 1 0 -334)">
					<stop  offset="0" style="stop-color:#2A1F31"/>
					<stop  offset="1" style="stop-color:#6A517F"/>
				</linearGradient>
				<path class="st8" d="M88.8,27.6L88.8,27.6c-1,0-1.8,0.8-1.8,1.8v5.9c0,1,0.8,1.8,1.8,1.8l0,0c1,0,1.8-0.8,1.8-1.8v-5.9
					C90.5,28.4,89.7,27.6,88.8,27.6z"/>
				
					<linearGradient id="SVGID_9_" gradientUnits="userSpaceOnUse" x1="99.2281" y1="342.9783" x2="99.4658" y2="375.295" gradientTransform="matrix(1 0 0 1 0 -334)">
					<stop  offset="0" style="stop-color:#2A1F31"/>
					<stop  offset="1" style="stop-color:#6A517F"/>
				</linearGradient>
				<path class="st9" d="M99.4,27.6L99.4,27.6c-1,0-1.8,0.8-1.8,1.8v5.9c0,1,0.8,1.8,1.8,1.8l0,0c1,0,1.8-0.8,1.8-1.8v-5.9
					C101.1,28.4,100.3,27.6,99.4,27.6z"/>
				
					<linearGradient id="SVGID_10_" gradientUnits="userSpaceOnUse" x1="109.8276" y1="342.9004" x2="110.0652" y2="375.2171" gradientTransform="matrix(1 0 0 1 0 -334)">
					<stop  offset="0" style="stop-color:#2A1F31"/>
					<stop  offset="1" style="stop-color:#6A517F"/>
				</linearGradient>
				<path class="st10" d="M110,27.6L110,27.6c-1,0-1.8,0.8-1.8,1.8v5.9c0,1,0.8,1.8,1.8,1.8l0,0c1,0,1.8-0.8,1.8-1.8v-5.9
					C111.7,28.4,110.9,27.6,110,27.6z"/>
				
					<linearGradient id="SVGID_11_" gradientUnits="userSpaceOnUse" x1="120.427" y1="342.8224" x2="120.6646" y2="375.1392" gradientTransform="matrix(1 0 0 1 0 -334)">
					<stop  offset="0" style="stop-color:#2A1F31"/>
					<stop  offset="1" style="stop-color:#6A517F"/>
				</linearGradient>
				<path class="st11" d="M120.6,27.6L120.6,27.6c-1,0-1.8,0.8-1.8,1.8v5.9c0,1,0.8,1.8,1.8,1.8l0,0c1,0,1.8-0.8,1.8-1.8v-5.9
					C122.4,28.4,121.6,27.6,120.6,27.6z"/>
				
					<linearGradient id="SVGID_12_" gradientUnits="userSpaceOnUse" x1="131.0264" y1="342.7445" x2="131.2641" y2="375.0612" gradientTransform="matrix(1 0 0 1 0 -334)">
					<stop  offset="0" style="stop-color:#2A1F31"/>
					<stop  offset="1" style="stop-color:#6A517F"/>
				</linearGradient>
				<path class="st12" d="M131.2,27.6L131.2,27.6c-1,0-1.8,0.8-1.8,1.8v5.9c0,1,0.8,1.8,1.8,1.8l0,0c1,0,1.8-0.8,1.8-1.8v-5.9
					C133,28.4,132.2,27.6,131.2,27.6z"/>
			</g>
			
				<linearGradient id="SVGID_13_" gradientUnits="userSpaceOnUse" x1="98.0757" y1="360.861" x2="72.947" y2="382.2472" gradientTransform="matrix(1 0 0 1 0 -334)">
				<stop  offset="0" style="stop-color:#2A1F31"/>
				<stop  offset="1" style="stop-color:#6A517F"/>
			</linearGradient>
			<path class="st13" d="M79.2,49.4H61.4c-0.6,0-1.1,0.5-1.1,1.1l0,0c0,0.6,0.5,1.1,1.1,1.1h17.8c0.6,0,1.1-0.5,1.1-1.1l0,0
				C80.3,49.9,79.8,49.4,79.2,49.4z"/>
			
				<linearGradient id="SVGID_14_" gradientUnits="userSpaceOnUse" x1="130.6009" y1="338.3858" x2="129.7098" y2="372.604" gradientTransform="matrix(1 0 0 1 0 -334)">
				<stop  offset="0" style="stop-color:#2A1F31"/>
				<stop  offset="1" style="stop-color:#6A517F"/>
			</linearGradient>
			<path class="st14" d="M138.3,49.4h-17.8c-0.6,0-1.1,0.5-1.1,1.1l0,0c0,0.6,0.5,1.1,1.1,1.1h17.8c0.6,0,1.1-0.5,1.1-1.1l0,0
				C139.4,49.9,138.9,49.4,138.3,49.4z"/>
			<g>
				<path class="st15" d="M66.8,64.3h-5.5c-1,0-1.8-0.8-1.8-1.8v-4.1c0-1,0.8-1.8,1.8-1.8h5.5c1,0,1.8,0.8,1.8,1.8v4.1
					C68.5,63.5,67.7,64.3,66.8,64.3z"/>
				<path class="st15" d="M78.5,64.3H73c-1,0-1.8-0.8-1.8-1.8v-4.1c0-1,0.8-1.8,1.8-1.8h5.5c1,0,1.8,0.8,1.8,1.8v4.1
					C80.3,63.5,79.5,64.3,78.5,64.3z"/>
				<path class="st16" d="M90.3,64.3h-5.5c-1,0-1.8-0.8-1.8-1.8v-4.1c0-1,0.8-1.8,1.8-1.8h5.5c1,0,1.8,0.8,1.8,1.8v4.1
					C92.1,63.5,91.3,64.3,90.3,64.3z"/>
				<path class="st16" d="M102.1,64.3h-5.5c-1,0-1.8-0.8-1.8-1.8v-4.1c0-1,0.8-1.8,1.8-1.8h5.5c1,0,1.8,0.8,1.8,1.8v4.1
					C103.8,63.5,103.1,64.3,102.1,64.3z"/>
				<path class="st16" d="M113.9,64.3h-5.5c-1,0-1.8-0.8-1.8-1.8v-4.1c0-1,0.8-1.8,1.8-1.8h5.5c1,0,1.8,0.8,1.8,1.8v4.1
					C115.6,63.5,114.8,64.3,113.9,64.3z"/>
				<path class="st16" d="M125.6,64.3h-5.5c-1,0-1.8-0.8-1.8-1.8v-4.1c0-1,0.8-1.8,1.8-1.8h5.5c1,0,1.8,0.8,1.8,1.8v4.1
					C127.4,63.5,126.6,64.3,125.6,64.3z"/>
				<path class="st16" d="M137.4,64.3h-5.5c-1,0-1.8-0.8-1.8-1.8v-4.1c0-1,0.8-1.8,1.8-1.8h5.5c1,0,1.8,0.8,1.8,1.8v4.1
					C139.2,63.5,138.4,64.3,137.4,64.3z"/>
			</g>
			<g>
				<path class="st16" d="M66.8,75.6h-5.5c-1,0-1.8-0.8-1.8-1.8v-4.1c0-1,0.8-1.8,1.8-1.8h5.5c1,0,1.8,0.8,1.8,1.8v4.1
					C68.5,74.8,67.7,75.6,66.8,75.6z"/>
				<path class="st16" d="M78.5,75.6H73c-1,0-1.8-0.8-1.8-1.8v-4.1c0-1,0.8-1.8,1.8-1.8h5.5c1,0,1.8,0.8,1.8,1.8v4.1
					C80.3,74.8,79.5,75.6,78.5,75.6z"/>
				<path class="st16" d="M90.3,75.6h-5.5c-1,0-1.8-0.8-1.8-1.8v-4.1c0-1,0.8-1.8,1.8-1.8h5.5c1,0,1.8,0.8,1.8,1.8v4.1
					C92.1,74.8,91.3,75.6,90.3,75.6z"/>
				<path class="st16" d="M102.1,75.6h-5.5c-1,0-1.8-0.8-1.8-1.8v-4.1c0-1,0.8-1.8,1.8-1.8h5.5c1,0,1.8,0.8,1.8,1.8v4.1
					C103.8,74.8,103.1,75.6,102.1,75.6z"/>
				<path class="st16" d="M113.9,75.6h-5.5c-1,0-1.8-0.8-1.8-1.8v-4.1c0-1,0.8-1.8,1.8-1.8h5.5c1,0,1.8,0.8,1.8,1.8v4.1
					C115.6,74.8,114.8,75.6,113.9,75.6z"/>
				<path class="st16" d="M125.6,75.6h-5.5c-1,0-1.8-0.8-1.8-1.8v-4.1c0-1,0.8-1.8,1.8-1.8h5.5c1,0,1.8,0.8,1.8,1.8v4.1
					C127.4,74.8,126.6,75.6,125.6,75.6z"/>
				<path class="st16" d="M137.4,75.6h-5.5c-1,0-1.8-0.8-1.8-1.8v-4.1c0-1,0.8-1.8,1.8-1.8h5.5c1,0,1.8,0.8,1.8,1.8v4.1
					C139.2,74.8,138.4,75.6,137.4,75.6z"/>
			</g>
			<g>
				<path class="st16" d="M66.8,86.9h-5.5c-1,0-1.8-0.8-1.8-1.8V81c0-1,0.8-1.8,1.8-1.8h5.5c1,0,1.8,0.8,1.8,1.8v4.1
					C68.5,86.2,67.7,86.9,66.8,86.9z"/>
				<path class="st16" d="M78.5,86.9H73c-1,0-1.8-0.8-1.8-1.8V81c0-1,0.8-1.8,1.8-1.8h5.5c1,0,1.8,0.8,1.8,1.8v4.1
					C80.3,86.2,79.5,86.9,78.5,86.9z"/>
				<path class="st16" d="M90.3,86.9h-5.5c-1,0-1.8-0.8-1.8-1.8V81c0-1,0.8-1.8,1.8-1.8h5.5c1,0,1.8,0.8,1.8,1.8v4.1
					C92.1,86.2,91.3,86.9,90.3,86.9z"/>
				<path class="st16" d="M102.1,86.9h-5.5c-1,0-1.8-0.8-1.8-1.8V81c0-1,0.8-1.8,1.8-1.8h5.5c1,0,1.8,0.8,1.8,1.8v4.1
					C103.8,86.2,103.1,86.9,102.1,86.9z"/>
				<path class="st16" d="M113.9,86.9h-5.5c-1,0-1.8-0.8-1.8-1.8V81c0-1,0.8-1.8,1.8-1.8h5.5c1,0,1.8,0.8,1.8,1.8v4.1
					C115.6,86.2,114.8,86.9,113.9,86.9z"/>
				<path class="st16" d="M125.6,86.9h-5.5c-1,0-1.8-0.8-1.8-1.8V81c0-1,0.8-1.8,1.8-1.8h5.5c1,0,1.8,0.8,1.8,1.8v4.1
					C127.4,86.2,126.6,86.9,125.6,86.9z"/>
				<path class="st16" d="M137.4,86.9h-5.5c-1,0-1.8-0.8-1.8-1.8V81c0-1,0.8-1.8,1.8-1.8h5.5c1,0,1.8,0.8,1.8,1.8v4.1
					C139.2,86.2,138.4,86.9,137.4,86.9z"/>
			</g>
			<g>
				<path class="st16" d="M66.8,98.3h-5.5c-1,0-1.8-0.8-1.8-1.8v-4.1c0-1,0.8-1.8,1.8-1.8h5.5c1,0,1.8,0.8,1.8,1.8v4.1
					C68.5,97.5,67.7,98.3,66.8,98.3z"/>
				<path class="st16" d="M78.5,98.3H73c-1,0-1.8-0.8-1.8-1.8v-4.1c0-1,0.8-1.8,1.8-1.8h5.5c1,0,1.8,0.8,1.8,1.8v4.1
					C80.3,97.5,79.5,98.3,78.5,98.3z"/>
				<path class="st16" d="M90.3,98.3h-5.5c-1,0-1.8-0.8-1.8-1.8v-4.1c0-1,0.8-1.8,1.8-1.8h5.5c1,0,1.8,0.8,1.8,1.8v4.1
					C92.1,97.5,91.3,98.3,90.3,98.3z"/>
				<path class="st16" d="M102.1,98.3h-5.5c-1,0-1.8-0.8-1.8-1.8v-4.1c0-1,0.8-1.8,1.8-1.8h5.5c1,0,1.8,0.8,1.8,1.8v4.1
					C103.8,97.5,103.1,98.3,102.1,98.3z"/>
				<path class="st16" d="M113.9,98.3h-5.5c-1,0-1.8-0.8-1.8-1.8v-4.1c0-1,0.8-1.8,1.8-1.8h5.5c1,0,1.8,0.8,1.8,1.8v4.1
					C115.6,97.5,114.8,98.3,113.9,98.3z"/>
				<path class="st16" d="M125.6,98.3h-5.5c-1,0-1.8-0.8-1.8-1.8v-4.1c0-1,0.8-1.8,1.8-1.8h5.5c1,0,1.8,0.8,1.8,1.8v4.1
					C127.4,97.5,126.6,98.3,125.6,98.3z"/>
				<path class="st15" d="M137.4,98.3h-5.5c-1,0-1.8-0.8-1.8-1.8v-4.1c0-1,0.8-1.8,1.8-1.8h5.5c1,0,1.8,0.8,1.8,1.8v4.1
					C139.2,97.5,138.4,98.3,137.4,98.3z"/>
			</g>
			<g>
				
					<linearGradient id="SVGID_15_" gradientUnits="userSpaceOnUse" x1="105.1685" y1="417.1" x2="117.0938" y2="417.1" gradientTransform="matrix(1 0 0 1 0 -334)">
					<stop  offset="0" style="stop-color:#FF6D79"/>
					<stop  offset="1" style="stop-color:#FF8B88"/>
				</linearGradient>
				<circle class="st17" cx="111.1" cy="83.1" r="5.5"/>
				
					<linearGradient id="SVGID_16_" gradientUnits="userSpaceOnUse" x1="108.0488" y1="417" x2="114.2617" y2="417" gradientTransform="matrix(1 0 0 1 0 -334)">
					<stop  offset="0" style="stop-color:#FF6D79"/>
					<stop  offset="1" style="stop-color:#FF8B88"/>
				</linearGradient>
				<polyline class="st18" points="108.5,82.9 110.3,84.7 113.8,81.3 				"/>
			</g>
		</g>
		<g>
			
				<linearGradient id="SVGID_17_" gradientUnits="userSpaceOnUse" x1="4.008" y1="511.9412" x2="51.7638" y2="411.0838" gradientTransform="matrix(1 0 0 1 0 -334)">
				<stop  offset="0" style="stop-color:#FF7570"/>
				<stop  offset="1" style="stop-color:#FFBBBB"/>
			</linearGradient>
			<path class="st19" d="M56.8,92.8c-2.8,2.2-5.9,9.5-8.3,9.3c-2.4-0.2-3.6-3.8-4.3-4.8s-3.8-4.4-4-6.7c-0.3-2.2,0-2.8,0-2.8
				s-3.1-1.4-3.5-4c-0.3-2.6,1-4.5,1-4.5s-2-1.5-1.6-3.7s9-7.6,9-7.6c1.6-1.7,5-3.1,8.2-3.7c1.3-0.3,2.6-0.4,3.6-0.4
				c0.9,0,1.6,0.2,2.1,0.4c0.3,0.2,0.5,0.4,0.7,0.6c0.7,1.6-2.6,4.5-2.9,4.8h0.1c0.2-0.1,0.6-0.4,1.1-0.6h0.1
				c1.1-0.5,2.6-0.9,3.6-0.3l0,0l0,0c0.4,0.2,0.7,0.5,0.9,1c1.2,2.4-2.8,5.7-4.3,6.8l0,0l-0.1,0.1c0.1-0.1,0.3-0.2,0.4-0.3l0,0
				c0.1,0,0.2-0.1,0.3-0.2c0.2-0.1,0.5-0.3,0.8-0.5c1.1-0.6,2.5-1.2,3.5-1.1c0.2,0,0.3,0,0.5,0.1c0.4,0.1,0.8,0.4,1,0.9
				c0.9,2.7-5.7,8.3-6.5,9c0.1,0,0.1-0.1,0.3-0.2c0,0,0,0,0.1,0c0.4-0.3,1.1-0.7,1.8-1c1.2-0.6,2.7-1.2,3.6-1l0,0
				c0.4,0.1,0.7,0.3,0.8,0.7C65.5,85.5,59.7,90.6,56.8,92.8z"/>
			
				<linearGradient id="SVGID_18_" gradientUnits="userSpaceOnUse" x1="56.1621" y1="405.9089" x2="57.3845" y2="403.3272" gradientTransform="matrix(1 0 0 1 0 -334)">
				<stop  offset="0" style="stop-color:#FF7570"/>
				<stop  offset="1" style="stop-color:#FFBBBB"/>
			</linearGradient>
			<path class="st20" d="M56.8,69.7c0.2-0.1,0.6-0.4,1.1-0.6L56.8,69.7z"/>
			
				<linearGradient id="SVGID_19_" gradientUnits="userSpaceOnUse" x1="81.3373" y1="427.5167" x2="41.773" y2="397.1009" gradientTransform="matrix(1 0 0 1 0 -334)">
				<stop  offset="0" style="stop-color:#FF7570"/>
				<stop  offset="1" style="stop-color:#FFBBBB"/>
			</linearGradient>
			<path class="st21" d="M56.8,69.8L56.8,69.8c-6.5,3.3-11.9,6.8-12.8,6.9s-1.6-1.4,1.5-2.1c3.1-0.8,11.7-5.4,11.9-8.5
				c0.1-1-0.1-1.7-0.4-2.2c0.9,0,1.6,0.2,2.1,0.4C61.5,65.6,57.2,69.4,56.8,69.8z"/>
			
				<linearGradient id="SVGID_20_" gradientUnits="userSpaceOnUse" x1="83.5304" y1="434.0771" x2="43.9345" y2="403.6369" gradientTransform="matrix(1 0 0 1 0 -334)">
				<stop  offset="0" style="stop-color:#FF7570"/>
				<stop  offset="1" style="stop-color:#FFBBBB"/>
			</linearGradient>
			<path class="st22" d="M58.3,76.6C58.3,76.6,58.2,76.6,58.3,76.6c-2.2,1.2-7.7,4.4-9.7,6c-2.1,1.7-4.5,2.1-4.3,1.4
				c0.2-0.8,1.9-2.4,5.5-3.7c3.6-1.3,10.6-6.3,11.5-7.8c0.6-0.9,0.8-2.6,0.3-3.5c0.4,0.2,0.7,0.5,0.9,1
				C63.7,72.2,59.7,75.5,58.3,76.6z"/>
			
				<linearGradient id="SVGID_21_" gradientUnits="userSpaceOnUse" x1="80.0534" y1="435.1494" x2="48.8331" y2="411.1482" gradientTransform="matrix(1 0 0 1 0 -334)">
				<stop  offset="0" style="stop-color:#FF7570"/>
				<stop  offset="1" style="stop-color:#FFBBBB"/>
			</linearGradient>
			<path class="st23" d="M58.2,84.7c0.1,0,0.1-0.1,0.3-0.2c-1.7,1.2-3.4,2.3-4.3,2.7c-2,1-3.5,3.5-4.9,3.7s-1.9-0.3-0.5-2
				s7.7-4.1,9.6-5.4s4.5-4.2,5.4-5.6c0.7-1.2,0.7-2.3,0.1-3.2c0.4,0.1,0.8,0.4,1,0.9C65.6,78.3,59,83.9,58.2,84.7z"/>
			<path class="st24" d="M59.7,64.9c-0.3,1.9-4.4,2.7-4.8,2.7c-0.5,0-1.4-1.6-1.6-3.4c1.3-0.3,2.6-0.4,3.6-0.4
				c0.9,0,1.6,0.2,2.1,0.4C59.4,64.5,59.6,64.7,59.7,64.9z"/>
			<path class="st24" d="M59,73.1c-1.2,0.3-2.1-2-2.2-3.4c0.2-0.1,0.6-0.4,1.1-0.6H58c1.1-0.5,2.6-0.9,3.6-0.3
				C62.1,71,60.1,72.8,59,73.1z"/>
			<path class="st24" d="M61.5,78.8c-1.2,0.3-2.1-2.3-2-2.8c0-0.1,0.1-0.2,0.1-0.2c1.1-0.6,2.5-1.2,3.5-1.1
				C64.3,76.6,62.7,78.5,61.5,78.8z"/>
			<path class="st24" d="M64.1,84c-0.4,1.3-1.9,1.9-2.3,1.8c-0.4-0.1-1.4-1.8-1.5-2.2c0-0.1,0-0.1,0-0.2c1.2-0.6,2.7-1.2,3.6-1l0,0
				C64.2,82.7,64.4,83.2,64.1,84z"/>
		</g>
		<g>
			<g>
				
					<linearGradient id="SVGID_22_" gradientUnits="userSpaceOnUse" x1="313.5401" y1="229.6084" x2="313.0055" y2="251.7959" gradientTransform="matrix(0.8832 0.4689 -0.4689 0.8832 -4.4676 -268.5774)">
					<stop  offset="0" style="stop-color:#FFE392"/>
					<stop  offset="1" style="stop-color:#FF8B88"/>
				</linearGradient>
				<path class="st25" d="M167.9,87.5l-2.7,5.2l-10.4-5.5l2.7-5.2c1.5-2.9,5.1-3.9,7.9-2.4c0.6,0.3,1.1,0.7,1.6,1.2
					C168.7,82.6,169.1,85.2,167.9,87.5z"/>
				
					<linearGradient id="SVGID_23_" gradientUnits="userSpaceOnUse" x1="301.4962" y1="229.312" x2="300.9615" y2="251.5022" gradientTransform="matrix(0.8832 0.4689 -0.4689 0.8832 -4.4676 -268.5774)">
					<stop  offset="0" style="stop-color:#FFE392"/>
					<stop  offset="1" style="stop-color:#FF8B88"/>
				</linearGradient>
				<path class="st26" d="M154,84.8l-4,0.5l-3.2,0.4l-0.5-3.6c-0.3-2,1.1-3.8,3.1-4c1.5-0.2,2.9,0.6,3.6,1.8
					c0.2,0.4,0.4,0.8,0.4,1.2L154,84.8z"/>
				
					<linearGradient id="SVGID_24_" gradientUnits="userSpaceOnUse" x1="325.5125" y1="229.8882" x2="324.9777" y2="252.0829" gradientTransform="matrix(0.8832 0.4689 -0.4689 0.8832 -4.4676 -268.5774)">
					<stop  offset="0" style="stop-color:#FFE392"/>
					<stop  offset="1" style="stop-color:#FF8B88"/>
				</linearGradient>
				<path class="st27" d="M174,96.8l-1.2,0.6l-2.1,1l-2-4.1l-1.2-2.3l3.2-1.6l0,0c1.7-0.8,3.8-0.2,4.7,1.5l0.1,0.1
					C176.5,93.8,175.8,96,174,96.8z"/>
			</g>
			<g>
				
					<linearGradient id="SVGID_25_" gradientUnits="userSpaceOnUse" x1="313.796" y1="219.4574" x2="317.1823" y2="256.7661" gradientTransform="matrix(0.8832 0.4689 -0.4689 0.8832 -4.4676 -268.5774)">
					<stop  offset="0" style="stop-color:#FFE392"/>
					<stop  offset="1" style="stop-color:#FF8B88"/>
				</linearGradient>
				<path class="st28" d="M167.9,87.5l-2.7,5.2l-6.9-3.7l2.7-5.2c1.2-2.3,3.7-3.4,6-3C168.7,82.6,169.1,85.2,167.9,87.5z"/>
				
					<linearGradient id="SVGID_26_" gradientUnits="userSpaceOnUse" x1="301.8485" y1="220.5419" x2="305.2347" y2="257.8503" gradientTransform="matrix(0.8832 0.4689 -0.4689 0.8832 -4.4676 -268.5774)">
					<stop  offset="0" style="stop-color:#FFE392"/>
					<stop  offset="1" style="stop-color:#FF8B88"/>
				</linearGradient>
				<path class="st29" d="M153.6,81.2l0.5,3.6l-4,0.5l-0.2-1.3c-0.3-2,1.1-3.8,3.1-4c0.1,0,0.1,0,0.2,0
					C153.4,80.4,153.5,80.8,153.6,81.2z"/>
				
					<linearGradient id="SVGID_27_" gradientUnits="userSpaceOnUse" x1="306.8896" y1="220.0844" x2="310.2759" y2="257.3929" gradientTransform="matrix(0.8832 0.4689 -0.4689 0.8832 -4.4676 -268.5774)">
					<stop  offset="0" style="stop-color:#FFE392"/>
					<stop  offset="1" style="stop-color:#FF8B88"/>
				</linearGradient>
				<polygon class="st30" points="157.5,86.6 154.9,87 157,83.1 157,83.1 				"/>
				
					<linearGradient id="SVGID_28_" gradientUnits="userSpaceOnUse" x1="325.5826" y1="218.3878" x2="328.9689" y2="255.6962" gradientTransform="matrix(0.8832 0.4689 -0.4689 0.8832 -4.4676 -268.5774)">
					<stop  offset="0" style="stop-color:#FFE392"/>
					<stop  offset="1" style="stop-color:#FF8B88"/>
				</linearGradient>
				<path class="st31" d="M174,96.8l-1.2,0.6l-1.8-3.6l3.2-1.6c0.4-0.2,0.8-0.3,1.3-0.3l0.1,0.1C176.5,93.8,175.8,96,174,96.8z"/>
			</g>
			<g>
				
					<linearGradient id="SVGID_29_" gradientUnits="userSpaceOnUse" x1="354.3182" y1="45.1526" x2="354.4964" y2="71.7067" gradientTransform="matrix(0.5881 0.8088 -0.8088 0.5881 -29.6197 -205.5713)">
					<stop  offset="0" style="stop-color:#2A1F31"/>
					<stop  offset="1" style="stop-color:#6A517F"/>
				</linearGradient>
				<path class="st32" d="M131.6,115.3L131.6,115.3c-0.5-0.7-0.4-1.6,0.3-2.1l4.5-3.7c0.7-0.6,1.7-0.4,2.2,0.3l0.4,0.6
					c0.5,0.7,0.3,1.7-0.4,2.2l-4.9,3.1C132.9,116.2,132,116,131.6,115.3z"/>
				
					<linearGradient id="SVGID_30_" gradientUnits="userSpaceOnUse" x1="-428.9034" y1="436.8191" x2="-428.7252" y2="463.3741" gradientTransform="matrix(-0.9994 -3.400000e-02 -3.400000e-02 0.9994 -258.726 -327.4244)">
					<stop  offset="0" style="stop-color:#2A1F31"/>
					<stop  offset="1" style="stop-color:#6A517F"/>
				</linearGradient>
				<path class="st33" d="M154.9,127.7L154.9,127.7c0.8,0,1.5-0.6,1.6-1.4l0.6-5.8c0.1-0.9-0.6-1.6-1.5-1.7h-0.7
					c-0.9,0-1.6,0.7-1.6,1.6l0.2,5.8C153.4,127,154.1,127.7,154.9,127.7z"/>
			</g>
			<circle class="st34" cx="153.6" cy="102" r="19.5"/>
			<circle class="st35" cx="153.6" cy="102" r="15.6"/>
			
				<linearGradient id="SVGID_31_" gradientUnits="userSpaceOnUse" x1="313.2409" y1="239.4886" x2="314.0023" y2="298.4265" gradientTransform="matrix(0.8832 0.4689 -0.4689 0.8832 -4.4676 -268.5774)">
				<stop  offset="0" style="stop-color:#FFFFFF"/>
				<stop  offset="1" style="stop-color:#DDC4FF"/>
			</linearGradient>
			<path class="st36" d="M165.4,108.2c-3.4,6.5-11.5,9-18,5.5c-6.5-3.4-9-11.5-5.5-18c3.4-6.5,11.5-9,18-5.5
				C166.3,93.7,168.8,101.7,165.4,108.2z"/>
			
				<linearGradient id="SVGID_32_" gradientUnits="userSpaceOnUse" x1="313.6069" y1="255.3217" x2="313.0507" y2="250.1248" gradientTransform="matrix(0.8832 0.4689 -0.4689 0.8832 -4.4676 -268.5774)">
				<stop  offset="0" style="stop-color:#2A1F31"/>
				<stop  offset="1" style="stop-color:#6A517F"/>
			</linearGradient>
			<path class="st37" d="M155,102.8c-0.4,0.8-1.4,1.1-2.2,0.7s-1.1-1.4-0.7-2.2c0.4-0.8,1.4-1.1,2.2-0.7
				C155.2,101,155.5,102,155,102.8z"/>
			
				<linearGradient id="SVGID_33_" gradientUnits="userSpaceOnUse" x1="313.9354" y1="253.6443" x2="312.8038" y2="243.0701" gradientTransform="matrix(0.8832 0.4689 -0.4689 0.8832 -4.4676 -268.5774)">
				<stop  offset="0" style="stop-color:#2A1F31"/>
				<stop  offset="1" style="stop-color:#6A517F"/>
			</linearGradient>
			<line class="st38" x1="153.6" y1="102" x2="158.1" y2="93.4"/>
			
				<linearGradient id="SVGID_34_" gradientUnits="userSpaceOnUse" x1="-344.5909" y1="-425.4674" x2="-345.2612" y2="-431.7318" gradientTransform="matrix(-0.9839 0.1788 -0.1788 -0.9839 -261.9048 -255.421)">
				<stop  offset="0" style="stop-color:#2A1F31"/>
				<stop  offset="1" style="stop-color:#6A517F"/>
			</linearGradient>
			<line class="st39" x1="153.6" y1="102" x2="154.6" y2="107.2"/>
			<line class="st40" x1="160.5" y1="89" x2="159.2" y2="91.4"/>
			<line class="st40" x1="140.6" y1="95.1" x2="143" y2="96.4"/>
			<line class="st40" x1="146.7" y1="115" x2="148" y2="112.6"/>
			<line class="st40" x1="166.6" y1="108.9" x2="164.2" y2="107.6"/>
		</g>
	</g>
</g>
</svg>
